<svg width="30" height="30" viewBox="0 0 30 30" fill="none" xmlns="http://www.w3.org/2000/svg">
<path d="M16.5996 1.16259L16.5997 1.16268L28.8335 13.3948C28.8367 13.3981 28.8407 13.4022 28.8454 13.4068C29.7203 14.2888 29.7182 15.72 28.8391 16.5993C28.4107 17.0276 27.8443 17.2621 27.2395 17.2621H26.7872H26.2872V17.7621V26.7677C26.2872 28.2738 25.061 29.5 23.5543 29.5H18.7661C18.5568 29.5 18.3871 29.3302 18.3871 29.1211V22.0605C18.3871 20.9711 17.5017 20.0859 16.4123 20.0859H13.5881C12.4988 20.0859 11.613 20.971 11.613 22.0605V29.1211C11.613 29.3302 11.4433 29.5 11.234 29.5H6.44577C4.93933 29.5 3.71294 28.2738 3.71294 26.7677V17.7621V17.2621H3.21294H2.72537C2.71285 17.2621 2.70054 17.2615 2.68815 17.2604L2.6749 17.2591L2.66159 17.2585C2.09291 17.2339 1.56324 17.0015 1.161 16.5991L1.16091 16.599C0.281215 15.7194 0.279597 14.2873 1.15666 13.4052L1.15678 13.4053L1.16414 13.3975L1.1644 13.3973L1.16801 13.3937L13.4005 1.16267L13.0484 0.810564L13.4005 1.16267C13.8286 0.734564 14.395 0.5 15.0002 0.5C15.6053 0.5 16.1717 0.734574 16.5996 1.16259ZM28.3031 16.0636L28.3032 16.0635C28.8887 15.4777 28.8893 14.5265 28.3062 13.9393L28.3049 13.9381L28.2953 13.9287L28.2952 13.9285L16.0635 1.69835C15.7801 1.4149 15.4009 1.25781 15.0002 1.25781C14.5993 1.25781 14.22 1.41483 13.9366 1.69857L1.8437 13.7898H1.84361L1.69844 13.935L1.69841 13.9351L1.69776 13.9357L1.69769 13.9358C1.6976 13.9359 1.6975 13.936 1.69741 13.9361C1.69732 13.9361 1.69724 13.9362 1.69715 13.9363C1.11071 14.523 1.11048 15.4764 1.69704 16.0631C1.97339 16.3398 2.343 16.4956 2.73357 16.5024L2.73412 16.5024C2.73698 16.5025 2.7416 16.5026 2.75026 16.5032L2.76687 16.5043H2.78352H4.09194C4.30135 16.5043 4.47093 16.674 4.47093 16.8832V26.7677C4.47093 27.857 5.3567 28.7422 6.44577 28.7422H10.355H10.855V28.2422V22.0605C10.855 20.5545 12.0814 19.328 13.5881 19.328H16.4123C17.9189 19.328 19.1451 20.5544 19.1451 22.0605V28.2422V28.7422H19.6451H23.5543C24.6437 28.7422 25.5292 27.857 25.5292 26.7677V16.8832C25.5292 16.674 25.6988 16.5043 25.9082 16.5043H27.2395C27.6404 16.5043 28.0197 16.3469 28.3031 16.0636ZM1.63632 14.0103C1.6411 14.0032 1.65067 13.9891 1.66529 13.9715C1.65285 13.9865 1.64327 14 1.63632 14.0103ZM1.63499 14.0123L1.62852 14.0223C1.63025 14.0195 1.63255 14.0159 1.63499 14.0123Z" fill="white" stroke="#FF9E00"/>
</svg>
