<svg width="30" height="30" viewBox="0 0 30 30" fill="none" xmlns="http://www.w3.org/2000/svg">
<path d="M14.4518 28.281H6.01013C3.71598 28.281 1.85455 26.5492 1.85455 24.4291V5.57088C1.85455 3.4444 3.72285 1.71902 6.01013 1.71902H14.5892C15.1043 1.71902 15.5164 1.33701 15.5164 0.859508C15.5164 0.382003 15.1043 0 14.5892 0H6.01013C2.69254 0 0 2.50212 0 5.57088V24.4291C0 27.5042 2.69941 30 6.01013 30H14.4518C14.9669 30 15.3791 29.618 15.3791 29.1405C15.3791 28.663 14.9601 28.281 14.4518 28.281Z" fill="#87837B"/>
<path d="M29.7278 14.3951L23.8344 8.93246C23.4704 8.59502 22.8865 8.59502 22.5225 8.93246C22.1584 9.2699 22.1584 9.81107 22.5225 10.1485L26.836 14.1468H8.02261C7.50746 14.1468 7.09534 14.5288 7.09534 15.0063C7.09534 15.4838 7.50746 15.8658 8.02261 15.8658H26.836L22.5225 19.8641C22.1584 20.2016 22.1584 20.7427 22.5225 21.0802C22.7011 21.2457 22.9415 21.3348 23.175 21.3348C23.4085 21.3348 23.649 21.2521 23.8275 21.0802L29.7209 15.6175C30.0918 15.2737 30.0918 14.7262 29.7278 14.3951Z" fill="#87837B"/>
</svg>
