<svg width="30" height="36" viewBox="0 0 30 36" fill="none" xmlns="http://www.w3.org/2000/svg">
<path d="M17.2498 6.27C16.8358 6.27 16.4998 5.934 16.4998 5.52V3C16.4998 2.1735 15.8263 1.5 14.9998 1.5C14.1733 1.5 13.4998 2.1735 13.4998 3V5.52C13.4998 5.934 13.1638 6.27 12.7498 6.27C12.3358 6.27 11.9998 5.9355 11.9998 5.52V3C11.9998 1.3455 13.3453 0 14.9998 0C16.6543 0 17.9998 1.3455 17.9998 3V5.52C17.9998 5.9355 17.6638 6.27 17.2498 6.27Z" fill="#87837B"/>
<path d="M14.999 36C12.104 36 9.74902 33.645 9.74902 30.75C9.74902 30.336 10.085 30 10.499 30C10.913 30 11.249 30.336 11.249 30.75C11.249 32.817 12.932 34.5 14.999 34.5C17.066 34.5 18.749 32.817 18.749 30.75C18.749 30.336 19.085 30 19.499 30C19.913 30 20.249 30.336 20.249 30.75C20.249 33.645 17.894 36 14.999 36Z" fill="#87837B"/>
<path d="M27.75 31.4999H2.25C1.0095 31.4999 0 30.4904 0 29.2499C0 28.5914 0.2865 27.9689 0.7875 27.5399C3.1515 25.5419 4.5 22.6349 4.5 19.5569V14.9999C4.5 9.20993 9.21 4.49993 15 4.49993C20.79 4.49993 25.5 9.20993 25.5 14.9999V19.5569C25.5 22.6364 26.8485 25.5419 29.2005 27.5294C29.7135 27.9689 30 28.5914 30 29.2499C30 30.4904 28.992 31.4999 27.75 31.4999ZM15 5.99993C10.0365 5.99993 6 10.0364 6 14.9999V19.5569C6 23.0789 4.458 26.4014 1.7685 28.6754C1.596 28.8224 1.5 29.0309 1.5 29.2499C1.5 29.6639 1.836 29.9999 2.25 29.9999H27.75C28.164 29.9999 28.5 29.6639 28.5 29.2499C28.5 29.0309 28.404 28.8224 28.2375 28.6799C25.5435 26.4014 24 23.0774 24 19.5569V14.9999C24 10.0364 19.9635 5.99993 15 5.99993Z" fill="#87837B"/>
</svg>
