<svg width="30" height="30" viewBox="0 0 30 30" fill="none" xmlns="http://www.w3.org/2000/svg">
<path d="M13.6 30H16.4C17.3462 30 18.145 29.2913 18.2575 28.35L18.5563 26.005C19.1525 25.8113 19.7275 25.5725 20.2737 25.2938L22.1412 26.745C22.8987 27.3312 23.965 27.2638 24.6225 26.5875L26.5913 24.6187C27.2625 23.9675 27.33 22.9012 26.7437 22.145L25.2925 20.2763C25.5725 19.73 25.8112 19.155 26.0037 18.5588L28.3537 18.26C29.2912 18.145 30 17.3462 30 16.4V13.6C30 12.6538 29.2912 11.855 28.35 11.7425L26.005 11.4437C25.8112 10.8475 25.5725 10.2725 25.2937 9.72625L26.7437 7.85875C27.3312 7.10125 27.2625 6.03375 26.585 5.37625L24.6162 3.4075C23.965 2.73625 22.8975 2.67 22.1425 3.255L20.275 4.7075C19.7287 4.42875 19.1538 4.19 18.5563 3.99625L18.2575 1.64625C18.145 0.70875 17.3462 0 16.4 0H13.6C12.6538 0 11.855 0.70875 11.7425 1.65L11.4437 3.995C10.8462 4.18875 10.2713 4.4275 9.725 4.70625L7.8575 3.255C7.09875 2.66875 6.03375 2.73625 5.37625 3.41375L3.4075 5.3825C2.73625 6.03375 2.66875 7.1 3.255 7.85625L4.70625 9.725C4.42625 10.2713 4.1875 10.8463 3.995 11.4425L1.645 11.7412C0.70875 11.855 0 12.6538 0 13.6V16.4C0 17.3462 0.70875 18.145 1.65 18.2575L3.995 18.5563C4.18875 19.1525 4.4275 19.7275 4.70625 20.2737L3.255 22.1412C2.6675 22.8987 2.73625 23.965 3.41375 24.6225L5.3825 26.5913C6.03375 27.2625 7.10125 27.3313 7.85625 26.7438L9.725 25.2925C10.2713 25.5725 10.8463 25.8112 11.4425 26.0037L11.7412 28.3538C11.855 29.2913 12.6538 30 13.6 30V30ZM20.3375 23.925C20.2337 23.925 20.1275 23.9512 20.0325 24.0037C19.3438 24.3887 18.5975 24.6987 17.815 24.9237C17.575 24.9925 17.3988 25.1975 17.3675 25.445L17.0175 28.195C16.98 28.5087 16.7087 28.75 16.4 28.75H13.6C13.2913 28.75 13.02 28.5088 12.9838 28.2013L12.6325 25.4463C12.6012 25.1988 12.425 24.9938 12.185 24.925C11.4025 24.7 10.6563 24.39 9.9675 24.005C9.74875 23.8825 9.47625 23.9038 9.28 24.0575L7.0925 25.7575C6.84125 25.9525 6.48875 25.9363 6.27375 25.715L4.2925 23.7337C4.06625 23.5137 4.04875 23.1612 4.24375 22.9087L5.94375 20.7212C6.0975 20.5237 6.11875 20.2525 5.99625 20.0338C5.61125 19.345 5.30125 18.5988 5.07625 17.8163C5.0075 17.5763 4.8025 17.4 4.555 17.3688L1.805 17.0187C1.49125 16.98 1.25 16.7087 1.25 16.4V13.6C1.25 13.2913 1.49125 13.02 1.79875 12.9838L4.55375 12.6325C4.80125 12.6012 5.00625 12.425 5.075 12.185C5.3 11.4025 5.61 10.6562 5.995 9.9675C6.1175 9.74875 6.0975 9.4775 5.9425 9.28L4.2425 7.0925C4.04625 6.84 4.06375 6.4875 4.28375 6.275L6.265 4.29375C6.48375 4.06625 6.8375 4.04875 7.09 4.245L9.2775 5.945C9.47625 6.09875 9.7475 6.12 9.96625 5.9975C10.6525 5.6125 11.3987 5.30375 12.1837 5.0775C12.4237 5.00875 12.6 4.80375 12.6312 4.55625L12.9813 1.80625C13.02 1.49125 13.2913 1.25 13.6 1.25H16.4C16.7087 1.25 16.98 1.49125 17.0162 1.79875L17.3675 4.55375C17.3988 4.80125 17.575 5.00625 17.815 5.07625C18.6 5.30125 19.3462 5.61125 20.0325 5.995C20.2513 6.11875 20.5225 6.09625 20.7213 5.94375L22.9088 4.24375C23.1613 4.0475 23.5125 4.065 23.7262 4.285L25.7075 6.2675C25.9337 6.4875 25.9513 6.84 25.7563 7.0925L24.0562 9.28C23.9025 9.4775 23.8813 9.74875 24.0038 9.9675C24.39 10.6562 24.6988 11.4025 24.9238 12.185C24.9925 12.425 25.1975 12.6012 25.445 12.6325L28.195 12.9825C28.5087 13.02 28.75 13.2913 28.75 13.6V16.4C28.75 16.7087 28.5087 16.98 28.2012 17.0162L25.4463 17.3675C25.1988 17.3988 24.9938 17.575 24.925 17.815C24.7 18.5975 24.39 19.3437 24.005 20.0325C23.8825 20.2512 23.9025 20.5225 24.0575 20.72L25.7575 22.9075C25.9537 23.16 25.9362 23.5125 25.7162 23.725L23.735 25.7063C23.5162 25.9325 23.165 25.95 22.91 25.755L20.7225 24.055C20.6088 23.97 20.4737 23.925 20.3375 23.925V23.925Z" fill="#87837B"/>
<path d="M14.9996 21.25C18.4458 21.25 21.2496 18.4462 21.2496 15C21.2496 11.5537 18.4458 8.74995 14.9996 8.74995C11.5533 8.74995 8.74957 11.5537 8.74957 15C8.74957 18.4462 11.5533 21.25 14.9996 21.25ZM14.9996 9.99995C17.7571 9.99995 19.9996 12.2425 19.9996 15C19.9996 17.7575 17.7571 20 14.9996 20C12.2421 20 9.99957 17.7575 9.99957 15C9.99957 12.2425 12.2421 9.99995 14.9996 9.99995Z" fill="#87837B"/>
</svg>
